<svg xmlns="http://www.w3.org/2000/svg" width="180" height="180" fill="none"><style>@media (prefers-color-scheme:light){.background{fill:#000}.foreground{fill:#fff}}@media (prefers-color-scheme:dark){.background{fill:#fff}.foreground{fill:#000}}</style><g clip-path="url(#clip0_7960_43945)"><rect width="180" height="180" class="background" rx="37"/><g style="transform:scale(95%);transform-origin:center"><path d="M101.141 53h35.491c14.391 0 26.057 11.666 26.057 26.057v33.847h-14.577V79.057q0-.52-.04-1.032l-35.491 34.873q.18.006.36.006h35.171v13.768h-35.171c-14.39 0-26.377-11.781-26.377-26.172V66.743h14.577V100.5q0 .976.148 1.922l36.271-35.64a11 11 0 0 0-.928-.039h-35.491zM65.293 124.136 14 66.737h20.636l30.113 33.699V66.737h15.388v51.733c0 7.808-9.642 11.488-14.844 5.666" class="foreground"/></g></g><defs><clipPath id="clip0_7960_43945"><path fill="#fff" d="M0 0h180v180H0z"/></clipPath></defs></svg>