<svg xmlns="http://www.w3.org/2000/svg" viewBox="0 0 256 256">
  <style>
    .qr-module { fill: #000; }
    .qr-background { fill: #fff; }
  </style>
  <rect width="256" height="256" class="qr-background"/>
  <!-- QR Code Pattern -->
  <g class="qr-module">
    <!-- Position Detection Pattern (Top-left) -->
    <rect x="14" y="14" width="28" height="28" class="qr-module"/>
    <rect x="22" y="22" width="12" height="12" class="qr-background"/>
    <rect x="26" y="26" width="4" height="4" class="qr-module"/>
    
    <!-- Position Detection Pattern (Top-right) -->
    <rect x="214" y="14" width="28" height="28" class="qr-module"/>
    <rect x="222" y="22" width="12" height="12" class="qr-background"/>
    <rect x="226" y="26" width="4" height="4" class="qr-module"/>
    
    <!-- Position Detection Pattern (Bottom-left) -->
    <rect x="14" y="214" width="28" height="28" class="qr-module"/>
    <rect x="22" y="222" width="12" height="12" class="qr-background"/>
    <rect x="26" y="226" width="4" height="4" class="qr-module"/>
    
    <!-- Timing Patterns -->
    <rect x="50" y="22" width="4" height="4" class="qr-module"/>
    <rect x="58" y="22" width="4" height="4" class="qr-module"/>
    <rect x="66" y="22" width="4" height="4" class="qr-module"/>
    <rect x="74" y="22" width="4" height="4" class="qr-module"/>
    <rect x="82" y="22" width="4" height="4" class="qr-module"/>
    <rect x="90" y="22" width="4" height="4" class="qr-module"/>
    
    <!-- Data area sample pattern -->
    <rect x="64" y="64" width="128" height="128" class="qr-module" opacity="0.1"/>
    
    <!-- Sample data modules -->
    <rect x="68" y="68" width="4" height="4" class="qr-module"/>
    <rect x="76" y="68" width="4" height="4" class="qr-module"/>
    <rect x="84" y="68" width="4" height="4" class="qr-module"/>
    <rect x="92" y="68" width="4" height="4" class="qr-module"/>
    <rect x="100" y="68" width="4" height="4" class="qr-module"/>
    <rect x="108" y="68" width="4" height="4" class="qr-module"/>
    <rect x="116" y="68" width="4" height="4" class="qr-module"/>
    <rect x="124" y="68" width="4" height="4" class="qr-module"/>
    <rect x="132" y="68" width="4" height="4" class="qr-module"/>
    <rect x="140" y="68" width="4" height="4" class="qr-module"/>
    <rect x="148" y="68" width="4" height="4" class="qr-module"/>
    <rect x="156" y="68" width="4" height="4" class="qr-module"/>
    <rect x="164" y="68" width="4" height="4" class="qr-module"/>
    <rect x="172" y="68" width="4" height="4" class="qr-module"/>
    <rect x="180" y="68" width="4" height="4" class="qr-module"/>
    <rect x="188" y="68" width="4" height="4" class="qr-module"/>
    
    <rect x="68" y="76" width="4" height="4" class="qr-module"/>
    <rect x="76" y="76" width="4" height="4" class="qr-background"/>
    <rect x="84" y="76" width="4" height="4" class="qr-module"/>
    <rect x="92" y="76" width="4" height="4" class="qr-module"/>
    <rect x="100" y="76" width="4" height="4" class="qr-background"/>
    <rect x="108" y="76" width="4" height="4" class="qr-module"/>
    <rect x="116" y="76" width="4" height="4" class="qr-background"/>
    <rect x="124" y="76" width="4" height="4" class="qr-module"/>
    <rect x="132" y="76" width="4" height="4" class="qr-background"/>
    <rect x="140" y="76" width="4" height="4" class="qr-module"/>
    <rect x="148" y="76" width="4" height="4" class="qr-module"/>
    <rect x="156" y="76" width="4" height="4" class="qr-background"/>
    <rect x="164" y="76" width="4" height="4" class="qr-module"/>
    <rect x="172" y="76" width="4" height="4" class="qr-module"/>
    <rect x="180" y="76" width="4" height="4" class="qr-background"/>
    <rect x="188" y="76" width="4" height="4" class="qr-module"/>
    
    <!-- Additional pattern elements for realistic look -->
    <rect x="68" y="84" width="4" height="4" class="qr-background"/>
    <rect x="76" y="84" width="4" height="4" class="qr-module"/>
    <rect x="84" y="84" width="4" height="4" class="qr-background"/>
    <rect x="92" y="84" width="4" height="4" class="qr-background"/>
    <rect x="100" y="84" width="4" height="4" class="qr-module"/>
    <rect x="108" y="84" width="4" height="4" class="qr-background"/>
    <rect x="116" y="84" width="4" height="4" class="qr-module"/>
    <rect x="124" y="84" width="4" height="4" class="qr-module"/>
    <rect x="132" y="84" width="4" height="4" class="qr-module"/>
    <rect x="140" y="84" width="4" height="4" class="qr-background"/>
    <rect x="148" y="84" width="4" height="4" class="qr-background"/>
    <rect x="156" y="84" width="4" height="4" class="qr-module"/>
    <rect x="164" y="84" width="4" height="4" class="qr-module"/>
    <rect x="172" y="84" width="4" height="4" class="qr-background"/>
    <rect x="180" y="84" width="4" height="4" class="qr-module"/>
    <rect x="188" y="84" width="4" height="4" class="qr-background"/>
  </g>
</svg>
