<svg xmlns="http://www.w3.org/2000/svg" viewBox="0 0 256 256"><style>.qr-module{fill:#000}.qr-background{fill:#fff}</style><path d="M0 0h256v256H0z" class="qr-background"/><g class="qr-module"><path d="M14 14h28v28H14z" class="qr-module"/><path d="M22 22h12v12H22z" class="qr-background"/><path d="M26 26h4v4h-4zM214 14h28v28h-28z" class="qr-module"/><path d="M222 22h12v12h-12z" class="qr-background"/><path d="M226 26h4v4h-4zM14 214h28v28H14z" class="qr-module"/><path d="M22 222h12v12H22z" class="qr-background"/><path d="M26 226h4v4h-4zM50 22h4v4h-4zM58 22h4v4h-4zM66 22h4v4h-4zM74 22h4v4h-4zM82 22h4v4h-4zM90 22h4v4h-4z" class="qr-module"/><path d="M64 64h128v128H64z" class="qr-module" opacity=".1"/><path d="M68 68h4v4h-4zM76 68h4v4h-4zM84 68h4v4h-4zM92 68h4v4h-4zM100 68h4v4h-4zM108 68h4v4h-4zM116 68h4v4h-4zM124 68h4v4h-4zM132 68h4v4h-4zM140 68h4v4h-4zM148 68h4v4h-4zM156 68h4v4h-4zM164 68h4v4h-4zM172 68h4v4h-4zM180 68h4v4h-4zM188 68h4v4h-4zM68 76h4v4h-4z" class="qr-module"/><path d="M76 76h4v4h-4z" class="qr-background"/><path d="M84 76h4v4h-4zM92 76h4v4h-4z" class="qr-module"/><path d="M100 76h4v4h-4z" class="qr-background"/><path d="M108 76h4v4h-4z" class="qr-module"/><path d="M116 76h4v4h-4z" class="qr-background"/><path d="M124 76h4v4h-4z" class="qr-module"/><path d="M132 76h4v4h-4z" class="qr-background"/><path d="M140 76h4v4h-4zM148 76h4v4h-4z" class="qr-module"/><path d="M156 76h4v4h-4z" class="qr-background"/><path d="M164 76h4v4h-4zM172 76h4v4h-4z" class="qr-module"/><path d="M180 76h4v4h-4z" class="qr-background"/><path d="M188 76h4v4h-4z" class="qr-module"/><path d="M68 84h4v4h-4z" class="qr-background"/><path d="M76 84h4v4h-4z" class="qr-module"/><path d="M84 84h4v4h-4zM92 84h4v4h-4z" class="qr-background"/><path d="M100 84h4v4h-4z" class="qr-module"/><path d="M108 84h4v4h-4z" class="qr-background"/><path d="M116 84h4v4h-4zM124 84h4v4h-4zM132 84h4v4h-4z" class="qr-module"/><path d="M140 84h4v4h-4zM148 84h4v4h-4z" class="qr-background"/><path d="M156 84h4v4h-4zM164 84h4v4h-4z" class="qr-module"/><path d="M172 84h4v4h-4z" class="qr-background"/><path d="M180 84h4v4h-4z" class="qr-module"/><path d="M188 84h4v4h-4z" class="qr-background"/></g></svg>